HIERARCHY
ROOT pelvis
{
  OFFSET 0 100 0
  CHANNELS 6 Xposition Yposition Zposition Zrotation Xrotation Yrotation
  JOINT pelvis_right_femur
  {
    OFFSET -10.78128 -3.44521 -0.5502486
    CHANNELS 3 Zrotation Xrotation Yrotation
    JOINT right_femur_tibia
    {
      OFFSET -0.8047443 -44.0398 -0.1307829
      CHANNELS 3 Zrotation Xrotation Yrotation
      JOINT right_tibia_foot
      {
        OFFSET 3.006224 -47.83518 -5
        CHANNELS 3 Zrotation Xrotation Yrotation
        End Site
        {
          OFFSET 0 -5 15
        }
      }
    }
  }
  JOINT pelvis_left_femur
  {
    OFFSET 10.78128 -3.44521 -0.5502486
    CHANNELS 3 Zrotation Xrotation Yrotation
    JOINT left_femur_tibia
    {
      OFFSET 0.8047443 -44.0398 -0.1307829
      CHANNELS 3 Zrotation Xrotation Yrotation
      JOINT left_tibia_foot
      {
        OFFSET -4.370144 -48.10324 -4.275266
        CHANNELS 3 Zrotation Xrotation Yrotation
        End Site
        {
          OFFSET 0 -5 15
        }
      }
    }
  }
  JOINT pelvis_spine1
  {
    OFFSET 0 6.468898 -3.129235
    CHANNELS 3 Zrotation Xrotation Yrotation
    JOINT spine1
    {
      OFFSET 0 23.15396 4.99043
      CHANNELS 3 Zrotation Xrotation Yrotation
      JOINT spine2
      {
        OFFSET 0 20.79997 -5.064912
        CHANNELS 3 Zrotation Xrotation Yrotation
        JOINT neck
        {
          OFFSET 0 14.38658 9.616178
          CHANNELS 3 Zrotation Xrotation Yrotation
          End Site
          {
            OFFSET 0 20 0
          }
        }
      }
      JOINT right_manubrium
      {
        OFFSET -5.722621 16.35077 3.967754
        CHANNELS 3 Zrotation Xrotation Yrotation
        JOINT right_clavicle
        {
          OFFSET -13.16364 1.694482 -4.693211
          CHANNELS 3 Zrotation Xrotation Yrotation
          JOINT right_humerus
          {
            OFFSET -28.5034 -0.3100689 -2.792744
            CHANNELS 3 Zrotation Xrotation Yrotation
            JOINT right_radius
            {
              OFFSET -25.15693 0.02248979 -1.271978
              CHANNELS 3 Zrotation Xrotation Yrotation
              End Site
              {
                OFFSET -15 0 0
              }
            }
          }
        }
      }
      JOINT left_manubrium
      {
        OFFSET 5.722621 16.35077 3.967754
        CHANNELS 3 Zrotation Xrotation Yrotation
        JOINT left_clavicle
        {
          OFFSET 13.16364 1.694482 -4.693211
          CHANNELS 3 Zrotation Xrotation Yrotation
          JOINT left_humerus
          {
            OFFSET 29.39168 -1.063119 -2.237045
            CHANNELS 3 Zrotation Xrotation Yrotation
            JOINT left_radius
            {
              OFFSET 24.59957 -0.9528479 0.9047498
              CHANNELS 3 Zrotation Xrotation Yrotation
              End Site
              {
                OFFSET 15 -0 -0
              }
            }
          }
        }
      }
    }
  }
}
MOTION
Frames: 15
Frame Time: 0.0416666666667
0 103.5113 0 0.8350513 -0.619378 -0.3618464 4.38685 -17.7722 10.87433 -0 39.7384 -0 -4.937399 -16.33787 -2.180133 -7.249976 9.220067 -23.62408 -0 6.20112 -0 13.35087 -13.53785 30.68509 -3.871243 -3.511013 5.103674 2.602418 10.78865 -7.546958 1.2262 21.26759 7.198776 4.052996 -23.83143 9.240421 8.604764 -20.03212 12.39568 83.22808 39.92234 -16.47737 -0 0 17.77362 -6.766353 8.703496 3.709181 6.497254 -19.1062 -1.617664 -93.06681 20.48038 20.97903 0 0 -13.06072 14.82136 14.32362 -4.376175
0.4357366 104.3072 1.481386 0.8310499 -0.7335577 -0.7037078 4.266217 -18.10646 10.35152 -0 39.21097 -0 -5.11682 -15.80469 -2.107617 -7.186853 9.39332 -23.23727 -0 6.138679 -0 13.20343 -13.64783 30.25528 -3.83947 -3.431403 4.996449 2.556928 10.79655 -7.526562 1.205856 21.34657 7.197594 4.053398 -23.68309 9.167532 8.41165 -19.91192 12.36823 83.47503 39.54373 -16.61633 -0 0 17.38994 -7.182352 8.689868 3.880859 6.566865 -19.3351 -1.769299 -92.65658 20.19671 20.42179 0 0 -13.39563 15.1137 14.2782 -4.73759
0.8024965 104.6708 3.610209 0.7616146 0.06487662 -0.7868793 4.241553 -22.59818 7.768537 -0 31.47432 -0 -4.948276 -13.20781 -1.833882 -7.147427 11.22164 -21.51344 -0 5.22304 -0 10.86763 -17.17597 26.96532 -3.700144 -2.837252 4.816501 2.623764 9.829746 -7.374844 1.386129 21.66451 7.111035 3.666888 -24.16275 9.443368 6.545824 -19.2924 11.68175 85.32321 36.42034 -18.58798 -0 0 15.34029 -7.860261 8.051662 4.260534 6.959309 -20.29943 -2.0337 -91.80989 22.41988 19.13648 0 0 -17.24453 12.98635 14.81997 -1.663916
1.118256 104.814 6.119635 0.6458566 0.8356729 -0.7025703 4.473413 -25.466 6.702153 -0 26.87696 -0 -4.830624 -11.66182 -1.758311 -7.116436 12.38534 -20.67285 -0 5.187016 -0 9.283349 -19.314 25.09797 -3.591355 -2.517139 4.728823 2.732318 9.208815 -7.344327 1.53418 21.72457 7.041911 3.459735 -24.64162 9.665309 5.633478 -18.89387 11.2517 86.233 35.08353 -19.73487 -0 0 14.28966 -7.777354 7.718507 4.270371 7.132452 -20.68918 -2.01867 -91.62138 24.13535 18.79712 0 0 -19.41313 11.3186 15.06438 0.6803969
1.367782 104.7832 9.145614 0.4463289 1.514495 -0.4494881 4.725091 -28.39971 5.407577 -0 22.40394 -0 -5.101129 -9.419699 -1.613799 -6.968934 13.64649 -19.39865 -0 5.945485 -0 7.722791 -20.92105 23.00176 -3.369631 -2.211145 4.483495 2.802722 8.801587 -7.381169 1.627701 21.74688 6.9621 3.326337 -24.90493 9.719261 4.799002 -18.35915 10.88967 87.22787 33.92563 -20.86146 -0 0 12.92048 -8.046671 7.519333 4.385797 7.333327 -21.28102 -2.127644 -90.91666 24.96944 17.83149 0 0 -21.56159 10.49077 15.03141 1.929942
1.545777 104.682 12.71493 0.123092 2.121818 -0.05262462 5.143703 -30.90228 4.38636 -0 18.84668 -0 -5.652388 -7.069339 -1.497333 -6.700088 14.83382 -18.08854 -0 7.602298 -0 6.111949 -21.88692 20.96842 -3.0237 -1.960584 4.12721 2.865557 8.550824 -7.485875 1.673631 21.71701 6.903119 3.266396 -25.06485 9.685512 4.201039 -17.77982 10.60827 88.10822 33.2101 -21.86533 -0 0 11.58104 -8.329707 7.470955 4.4766 7.429525 -21.81031 -2.260917 -90.21975 25.47629 16.92058 0 0 -23.2273 9.90513 14.91014 2.821981
1.646497 104.6135 16.86657 -0.3326133 2.491155 0.4446945 5.692096 -32.72038 3.551029 -0 16.34267 -0 -6.516463 -4.740878 -1.426725 -6.268608 15.92867 -16.67154 -0 10.40096 -0 4.388272 -22.02765 18.9277 -2.512378 -1.756844 3.628145 2.894801 8.463813 -7.638469 1.663606 21.70135 6.863495 3.257357 -25.00747 9.547733 3.774307 -17.12424 10.40782 88.92736 32.74213 -22.728 -0 0 10.20373 -8.786364 7.594011 4.592868 7.391482 -22.28775 -2.484158 -89.46984 25.58245 15.94924 0 0 -24.30275 9.588529 14.75158 3.28647
1.671126 104.6998 21.61441 -0.9038889 2.524822 0.9709027 6.366444 -33.53229 2.975067 -0 15.05592 -0 -7.601106 -2.786209 -1.446323 -5.664027 16.79612 -15.22291 -0 14.56075 -0 2.536481 -21.21 16.94084 -1.823708 -1.5942 3.025148 2.879138 8.510273 -7.803396 1.609606 21.73563 6.836484 3.270351 -24.69611 9.333597 3.507421 -16.40332 10.28309 89.63493 32.44955 -23.36754 -0 0 8.889551 -9.399765 7.905979 4.720412 7.179564 -22.62111 -2.794067 -88.77975 25.37705 15.03365 0 0 -24.59024 9.419442 14.59756 3.446572
1.629808 105.0682 26.92885 -1.522951 2.117472 1.423455 7.086899 -32.97636 2.675115 -0 15.01474 -0 -8.749821 -1.614606 -1.617172 -4.91236 17.20715 -13.82721 -0 20.2688 -0 0.6095617 -19.35828 15.11218 -0.9874081 -1.458861 2.409846 2.801093 8.652967 -7.923679 1.536169 21.86089 6.79651 3.265141 -24.10064 9.072095 3.364383 -15.65105 10.22731 90.16828 32.21164 -23.67457 -0 0 7.770417 -10.1466 8.401869 4.852213 6.775594 -22.71962 -3.174628 -88.24698 24.94384 14.27323 0 0 -23.9469 9.296411 14.47445 3.40609
1.541385 105.8352 32.71603 -2.069671 1.219529 1.683064 7.700613 -30.75398 2.609282 -0 16.00476 -0 -9.758732 -1.583053 -1.989718 -4.095794 16.81437 -12.57613 -0 27.59391 -0 -1.27075 -16.55755 13.57663 -0.09585328 -1.323182 1.940222 2.6439 8.850063 -7.927791 1.480077 22.10298 6.698855 3.201654 -23.24469 8.789003 3.294199 -14.94426 10.2344 90.4582 31.90759 -23.54245 -0 0 7.013373 -10.96031 9.035794 4.985671 6.196082 -22.51439 -3.580772 -87.967 24.40249 13.79263 0 0 -22.37397 9.107801 14.3878 3.309287
1.428716 107.0767 38.80361 -2.386703 -0.1190626 1.651614 8.00828 -26.77049 2.674314 -0 17.50672 -0 -10.44855 -2.816971 -2.543526 -3.35714 15.18283 -11.54113 -0 36.31752 -0 -2.918041 -13.14257 12.46721 0.6830599 -1.14136 1.818995 2.396703 9.069468 -7.744997 1.481129 22.45918 6.490062 3.063279 -22.22701 8.490989 3.243497 -14.40686 10.30436 90.45253 31.47123 -22.90885 -0 0 6.778463 -11.74398 9.710791 5.131521 5.507569 -22.00787 -3.943849 -88.00896 23.89354 13.72536 0 0 -20.10337 8.759266 14.32413 3.323133
1.310352 108.7858 44.95362 -2.327056 -1.728275 1.303657 7.846235 -21.29782 2.732635 -0 18.75424 -0 -10.76595 -5.026124 -3.13196 -2.858717 11.9277 -10.73969 -0 45.71894 -0 -4.11229 -9.711983 11.87435 1.129783 -0.8552464 2.216497 2.062384 9.300878 -7.331808 1.562564 22.89262 6.138229 2.887707 -21.20543 8.152449 3.182727 -14.17735 10.44412 90.13322 30.96834 -21.79152 -0 0 7.139111 -12.41699 10.29394 5.318927 4.830009 -21.32017 -4.19749 -88.38367 23.52139 14.15976 0 0 -17.59776 8.239223 14.26153 3.555157
1.19357 110.839 50.91693 -1.82825 -3.354379 0.7138218 7.183662 -15.0368 2.646662 -0 18.99107 -0 -10.84076 -7.492758 -3.515253 -2.682806 6.962306 -10.11577 -0 54.41364 -0 -4.664495 -6.983156 11.83432 1.053722 -0.4197564 3.149116 1.665131 9.548615 -6.699755 1.70781 23.34711 5.673978 2.776966 -20.32116 7.723286 3.128336 -14.3349 10.65768 89.50295 30.62536 -20.27669 -0 0 8.003691 -12.98115 10.66003 5.590612 4.315997 -20.68136 -4.314927 -89.01819 23.27479 15.05157 0 0 -15.38028 7.688736 14.19024 3.931099
1.074887 113.0004 56.51749 -0.9843696 -4.757351 0.02178009 6.177819 -8.918966 2.312169 -0 17.85543 -0 -10.93291 -9.401186 -3.510555 -2.720668 0.7140312 -9.535345 -0 60.49428 -0 -4.516055 -5.476892 12.36032 0.4182944 0.1607635 4.39332 1.25086 9.801372 -5.925326 1.854964 23.77851 5.202259 2.847018 -19.59708 7.168852 3.121667 -14.83338 10.92745 88.55561 30.69899 -18.44739 -0 0 9.127052 -13.55208 10.73998 5.989446 4.098523 -20.32428 -4.326434 -89.76562 22.9992 16.17553 0 0 -13.72995 7.375095 14.12605 4.162864
0.9498901 114.9764 61.71645 -0.05870251 -5.801088 -0.6485561 5.142689 -3.656775 1.713565 -0 15.60585 -0 -11.25745 -10.40036 -3.136888 -2.658502 -5.950525 -8.809296 -0 62.12214 -0 -3.821713 -5.215164 13.45896 -0.5699057 0.8160296 5.550142 0.8756607 10.00217 -5.126092 1.925963 24.16891 4.85023 3.123854 -18.92382 6.520414 3.155245 -15.53541 11.20317 87.27836 31.20457 -16.30768 -0 0 10.2809 -14.29311 10.53213 6.554397 4.221683 -20.31148 -4.287046 -90.49484 22.50734 17.25132 0 0 -12.47736 7.485537 14.08676 3.966014
